<svg width="32" height="32" viewBox="0 0 32 32" fill="none" xmlns="http://www.w3.org/2000/svg">
<g id="24 / various / cup">
<path id="icon" fill-rule="evenodd" clip-rule="evenodd" d="M17.3333 25.3333V23.9055C19.978 23.5272 22.265 22.0402 23.7084 19.9305C27.3272 19.4318 29.3333 16.2971 29.3333 12V8C29.3333 6.52724 28.1394 5.33333 26.6666 5.33333H24.9765C24.5155 4.53626 23.6537 4 22.6666 4H9.33329C8.34625 4 7.48446 4.53626 7.02338 5.33333H5.33329C3.86053 5.33333 2.66663 6.52724 2.66663 8V12C2.66663 16.2971 4.67274 19.4318 8.2915 19.9305C9.73494 22.0402 12.022 23.5272 14.6666 23.9055V25.3333H13.3333C11.8605 25.3333 10.6666 26.5272 10.6666 28H21.3333C21.3333 26.5272 20.1394 25.3333 18.6666 25.3333H17.3333ZM5.33329 8H6.66663V14.6667C6.66663 15.277 6.72521 15.8737 6.83706 16.4513C5.85366 15.5662 5.33329 14.0417 5.33329 12V8ZM25.3333 8V14.6667C25.3333 15.277 25.2747 15.8737 25.1629 16.4513C26.1463 15.5662 26.6666 14.0417 26.6666 12V8H25.3333ZM9.33329 14.6667V6.66667H22.6666V14.6667C22.6666 18.3486 19.6819 21.3333 16 21.3333C12.3181 21.3333 9.33329 18.3486 9.33329 14.6667Z" fill="#3F3F3F"/>
</g>
</svg>
