<svg width="32" height="32" viewBox="0 0 32 32" fill="none" xmlns="http://www.w3.org/2000/svg">
<g id="24 / time / time-history">
<path id="icon" fill-rule="evenodd" clip-rule="evenodd" d="M10.6667 8.00004H6.81883C9.39291 5.05521 12.2123 4.00004 16 4.00004C22.6275 4.00004 28 9.37262 28 16C28 22.6275 22.6275 28 16 28C9.37262 28 4.00004 22.6275 4.00004 16H1.33337C1.33337 24.1002 7.89986 30.6667 16 30.6667C24.1002 30.6667 30.6667 24.1002 30.6667 16C30.6667 7.89986 24.1002 1.33337 16 1.33337C11.7155 1.33337 8.31614 2.54745 5.33337 5.67531V2.65499H2.66671V10.6667H10.6667V8.00004ZM22.6667 14.6667H17.3334V8.00004H14.6667V17.3334H22.6667V14.6667Z" fill="#3F3F3F"/>
</g>
</svg>
