<svg width="150" height="150" viewBox="0 0 150 150" fill="none" xmlns="http://www.w3.org/2000/svg">
<path d="M150 75C150 116.421 116.421 150 75 150C33.5785 150 0 116.421 0 75C0 33.5785 33.5785 0 75 0C116.421 0 150 33.5785 150 75ZM107.162 64.3155C108.655 54.336 101.056 48.9711 90.665 45.3922L94.0358 31.8735L85.8061 29.8228L82.5245 42.9853C80.361 42.4461 78.1388 41.9377 75.9308 41.4339L79.236 28.1849L71.0108 26.1342L67.6379 39.6481C65.847 39.2401 64.089 38.837 62.3828 38.413L62.3921 38.3707L51.0423 35.537L48.8531 44.3259C48.8531 44.3259 54.9593 45.7252 54.8304 45.8117C58.1637 46.6437 58.7661 48.8492 58.6651 50.5975L54.8256 65.9982C55.0554 66.0569 55.353 66.1412 55.6812 66.2725C55.4069 66.2044 55.1138 66.1294 54.8114 66.0569L49.4295 87.6308C49.0216 88.6433 47.9879 90.1621 45.6581 89.5857C45.74 89.7051 39.6762 88.0926 39.6762 88.0926L35.5905 97.5121L46.3004 100.182C48.2927 100.681 50.2455 101.203 52.1673 101.695L48.7615 115.369L56.9819 117.419L60.3547 103.891C62.5347 104.482 64.7211 105.049 66.9133 105.593L63.5519 119.058L71.7817 121.108L75.1875 107.461C89.221 110.116 99.7739 109.045 104.216 96.3538C107.795 86.1351 104.037 80.2406 96.6538 76.3969C102.031 75.1576 106.081 71.6211 107.162 64.3155ZM88.3585 90.6801C85.8151 100.899 68.6081 95.3746 63.0293 93.9895L67.5487 75.8749C73.1271 77.2669 91.0164 80.0232 88.3585 90.6801ZM90.9039 64.1679C88.5835 73.4631 74.2615 68.7405 69.6157 67.5829L73.7129 51.1533C78.359 52.311 93.3206 54.4718 90.9039 64.1679Z" fill="black"/>
</svg>
